<mxfile host="app.diagrams.net" modified="2024-04-29T09:49:10.310Z" agent="Mozilla/5.0 (X11; Linux x86_64) AppleWebKit/537.36 (KHTML, like Gecko) Chrome/123.0.0.0 Safari/537.36" etag="HQaNu-RcTK70L3bDShp3" version="24.3.1" type="device">
  <diagram name="Page-1" id="gfo3UQEzHP2mosYh-bdZ">
    <mxGraphModel dx="2004" dy="1159" grid="0" gridSize="10" guides="1" tooltips="1" connect="1" arrows="1" fold="1" page="0" pageScale="1" pageWidth="850" pageHeight="1100" math="0" shadow="0">
      <root>
        <mxCell id="0" />
        <mxCell id="1" parent="0" />
        <mxCell id="QCBK2jdEv1QPMjzs1djt-3" style="edgeStyle=none;curved=1;rounded=0;orthogonalLoop=1;jettySize=auto;html=1;exitX=0.5;exitY=1;exitDx=0;exitDy=0;entryX=0.5;entryY=0;entryDx=0;entryDy=0;fontSize=12;startSize=8;endSize=8;" parent="1" source="QCBK2jdEv1QPMjzs1djt-1" target="QCBK2jdEv1QPMjzs1djt-2" edge="1">
          <mxGeometry relative="1" as="geometry" />
        </mxCell>
        <mxCell id="QCBK2jdEv1QPMjzs1djt-1" value="&lt;div align=&quot;center&quot;&gt;&lt;b&gt;&lt;font style=&quot;font-size: 22px;&quot;&gt;1&lt;/font&gt;&lt;/b&gt;&lt;/div&gt;" style="ellipse;whiteSpace=wrap;html=1;aspect=fixed;align=center;" parent="1" vertex="1">
          <mxGeometry x="-104" y="-100" width="67" height="67" as="geometry" />
        </mxCell>
        <mxCell id="QCBK2jdEv1QPMjzs1djt-6" style="edgeStyle=none;curved=1;rounded=0;orthogonalLoop=1;jettySize=auto;html=1;exitX=0.5;exitY=1;exitDx=0;exitDy=0;fontSize=12;startSize=8;endSize=8;" parent="1" source="QCBK2jdEv1QPMjzs1djt-2" target="QCBK2jdEv1QPMjzs1djt-5" edge="1">
          <mxGeometry relative="1" as="geometry" />
        </mxCell>
        <mxCell id="QCBK2jdEv1QPMjzs1djt-11" style="edgeStyle=orthogonalEdgeStyle;curved=1;rounded=0;orthogonalLoop=1;jettySize=auto;html=1;exitX=0;exitY=0.5;exitDx=0;exitDy=0;entryX=0.5;entryY=0;entryDx=0;entryDy=0;fontSize=12;startSize=8;endSize=8;" parent="1" source="QCBK2jdEv1QPMjzs1djt-2" target="QCBK2jdEv1QPMjzs1djt-10" edge="1">
          <mxGeometry relative="1" as="geometry" />
        </mxCell>
        <mxCell id="QCBK2jdEv1QPMjzs1djt-2" value="&lt;font size=&quot;1&quot;&gt;&lt;b&gt;&lt;font style=&quot;font-size: 20px;&quot;&gt;2&lt;/font&gt;&lt;/b&gt;&lt;/font&gt;" style="ellipse;whiteSpace=wrap;html=1;aspect=fixed;align=center;" parent="1" vertex="1">
          <mxGeometry x="-104" y="41" width="67" height="67" as="geometry" />
        </mxCell>
        <mxCell id="QCBK2jdEv1QPMjzs1djt-4" value="&lt;b&gt;Running&lt;/b&gt;" style="text;html=1;align=center;verticalAlign=middle;whiteSpace=wrap;rounded=0;fontSize=16;" parent="1" vertex="1">
          <mxGeometry x="-78" y="-21" width="96" height="30" as="geometry" />
        </mxCell>
        <mxCell id="QCBK2jdEv1QPMjzs1djt-12" style="edgeStyle=orthogonalEdgeStyle;curved=1;rounded=0;orthogonalLoop=1;jettySize=auto;html=1;exitX=1;exitY=0.5;exitDx=0;exitDy=0;entryX=1;entryY=0.5;entryDx=0;entryDy=0;fontSize=12;startSize=8;endSize=8;" parent="1" source="QCBK2jdEv1QPMjzs1djt-5" target="QCBK2jdEv1QPMjzs1djt-2" edge="1">
          <mxGeometry relative="1" as="geometry">
            <Array as="points">
              <mxPoint x="88" y="202" />
              <mxPoint x="88" y="75" />
            </Array>
          </mxGeometry>
        </mxCell>
        <mxCell id="QCBK2jdEv1QPMjzs1djt-5" value="&lt;font style=&quot;font-size: 18px;&quot;&gt;&lt;b&gt;3&lt;/b&gt;&lt;/font&gt;" style="ellipse;whiteSpace=wrap;html=1;aspect=fixed;align=center;" parent="1" vertex="1">
          <mxGeometry x="-75" y="230" width="67" height="67" as="geometry" />
        </mxCell>
        <mxCell id="QCBK2jdEv1QPMjzs1djt-7" value="&lt;div&gt;&lt;b&gt;count &amp;gt; 0&lt;/b&gt;&lt;/div&gt;&lt;div&gt;&lt;b&gt;PROD item&lt;/b&gt;&lt;/div&gt;&lt;div&gt;&lt;b&gt;&lt;br&gt;&lt;/b&gt;&lt;/div&gt;" style="text;html=1;align=center;verticalAlign=middle;whiteSpace=wrap;rounded=0;fontSize=16;" parent="1" vertex="1">
          <mxGeometry x="-99" y="142" width="154" height="38" as="geometry" />
        </mxCell>
        <mxCell id="QCBK2jdEv1QPMjzs1djt-10" value="&lt;font size=&quot;1&quot;&gt;&lt;b&gt;&lt;font style=&quot;font-size: 19px;&quot;&gt;4&lt;/font&gt;&lt;/b&gt;&lt;/font&gt;" style="ellipse;whiteSpace=wrap;html=1;aspect=fixed;align=center;" parent="1" vertex="1">
          <mxGeometry x="-228" y="242" width="67" height="67" as="geometry" />
        </mxCell>
        <mxCell id="QCBK2jdEv1QPMjzs1djt-13" value="&lt;b&gt;count---&lt;br&gt;&lt;/b&gt;" style="text;html=1;align=center;verticalAlign=middle;whiteSpace=wrap;rounded=0;fontSize=16;" parent="1" vertex="1">
          <mxGeometry x="47" y="99" width="154" height="38" as="geometry" />
        </mxCell>
        <mxCell id="QCBK2jdEv1QPMjzs1djt-14" value="&lt;b&gt;count == 0&lt;br&gt;SEND DONE&lt;br&gt;&lt;/b&gt;" style="text;html=1;align=center;verticalAlign=middle;whiteSpace=wrap;rounded=0;fontSize=16;" parent="1" vertex="1">
          <mxGeometry x="-284" y="126" width="154" height="38" as="geometry" />
        </mxCell>
        <mxCell id="QCBK2jdEv1QPMjzs1djt-15" style="edgeStyle=none;curved=1;rounded=0;orthogonalLoop=1;jettySize=auto;html=1;exitX=0.5;exitY=1;exitDx=0;exitDy=0;entryX=0.5;entryY=0;entryDx=0;entryDy=0;fontSize=12;startSize=8;endSize=8;" parent="1" source="QCBK2jdEv1QPMjzs1djt-16" target="QCBK2jdEv1QPMjzs1djt-19" edge="1">
          <mxGeometry relative="1" as="geometry" />
        </mxCell>
        <mxCell id="QCBK2jdEv1QPMjzs1djt-16" value="&lt;div align=&quot;center&quot;&gt;&lt;b&gt;&lt;font style=&quot;font-size: 22px;&quot;&gt;1&lt;/font&gt;&lt;/b&gt;&lt;/div&gt;" style="ellipse;whiteSpace=wrap;html=1;aspect=fixed;align=center;" parent="1" vertex="1">
          <mxGeometry x="549" y="-120" width="67" height="67" as="geometry" />
        </mxCell>
        <mxCell id="QCBK2jdEv1QPMjzs1djt-17" style="edgeStyle=none;curved=1;rounded=0;orthogonalLoop=1;jettySize=auto;html=1;exitX=0.5;exitY=1;exitDx=0;exitDy=0;fontSize=12;startSize=8;endSize=8;" parent="1" source="QCBK2jdEv1QPMjzs1djt-19" target="QCBK2jdEv1QPMjzs1djt-22" edge="1">
          <mxGeometry relative="1" as="geometry" />
        </mxCell>
        <mxCell id="QCBK2jdEv1QPMjzs1djt-18" style="edgeStyle=orthogonalEdgeStyle;curved=1;rounded=0;orthogonalLoop=1;jettySize=auto;html=1;exitX=0;exitY=0.5;exitDx=0;exitDy=0;entryX=0.5;entryY=0;entryDx=0;entryDy=0;fontSize=12;startSize=8;endSize=8;" parent="1" source="QCBK2jdEv1QPMjzs1djt-19" target="QCBK2jdEv1QPMjzs1djt-24" edge="1">
          <mxGeometry relative="1" as="geometry" />
        </mxCell>
        <mxCell id="QCBK2jdEv1QPMjzs1djt-19" value="&lt;font size=&quot;1&quot;&gt;&lt;b&gt;&lt;font style=&quot;font-size: 20px;&quot;&gt;2&lt;/font&gt;&lt;/b&gt;&lt;/font&gt;" style="ellipse;whiteSpace=wrap;html=1;aspect=fixed;align=center;" parent="1" vertex="1">
          <mxGeometry x="549" y="21" width="67" height="67" as="geometry" />
        </mxCell>
        <mxCell id="QCBK2jdEv1QPMjzs1djt-20" value="&lt;b&gt;Running&lt;/b&gt;" style="text;html=1;align=center;verticalAlign=middle;whiteSpace=wrap;rounded=0;fontSize=16;" parent="1" vertex="1">
          <mxGeometry x="575" y="-41" width="96" height="30" as="geometry" />
        </mxCell>
        <mxCell id="QCBK2jdEv1QPMjzs1djt-22" value="&lt;font style=&quot;font-size: 18px;&quot;&gt;&lt;b&gt;3&lt;/b&gt;&lt;/font&gt;" style="ellipse;whiteSpace=wrap;html=1;aspect=fixed;align=center;" parent="1" vertex="1">
          <mxGeometry x="549" y="148" width="67" height="67" as="geometry" />
        </mxCell>
        <mxCell id="QCBK2jdEv1QPMjzs1djt-23" value="&lt;b&gt;ch ? PROD&lt;br&gt;Consumes item&lt;br&gt;&lt;/b&gt;" style="text;html=1;align=center;verticalAlign=middle;whiteSpace=wrap;rounded=0;fontSize=16;" parent="1" vertex="1">
          <mxGeometry x="510" y="99" width="154" height="38" as="geometry" />
        </mxCell>
        <mxCell id="QCBK2jdEv1QPMjzs1djt-24" value="&lt;font size=&quot;1&quot;&gt;&lt;b&gt;&lt;font style=&quot;font-size: 19px;&quot;&gt;4&lt;/font&gt;&lt;/b&gt;&lt;/font&gt;" style="ellipse;whiteSpace=wrap;html=1;aspect=fixed;align=center;" parent="1" vertex="1">
          <mxGeometry x="425" y="222" width="67" height="67" as="geometry" />
        </mxCell>
        <mxCell id="QCBK2jdEv1QPMjzs1djt-26" value="&lt;div&gt;&lt;b&gt;ch ? DONE&lt;/b&gt;&lt;/div&gt;&lt;b&gt;DONE consuming&lt;br&gt;&lt;/b&gt;" style="text;html=1;align=center;verticalAlign=middle;whiteSpace=wrap;rounded=0;fontSize=16;" parent="1" vertex="1">
          <mxGeometry x="328" y="119" width="154" height="38" as="geometry" />
        </mxCell>
        <mxCell id="QCBK2jdEv1QPMjzs1djt-27" value="&lt;font size=&quot;1&quot;&gt;&lt;b style=&quot;font-size: 22px;&quot;&gt;Producer&lt;/b&gt;&lt;/font&gt;" style="text;html=1;align=center;verticalAlign=middle;whiteSpace=wrap;rounded=0;fontSize=16;" parent="1" vertex="1">
          <mxGeometry x="-112" y="-189" width="96" height="30" as="geometry" />
        </mxCell>
        <mxCell id="QCBK2jdEv1QPMjzs1djt-28" value="&lt;font style=&quot;font-size: 22px;&quot;&gt;&lt;b&gt;Consumer&lt;/b&gt;&lt;/font&gt;" style="text;html=1;align=center;verticalAlign=middle;whiteSpace=wrap;rounded=0;fontSize=16;" parent="1" vertex="1">
          <mxGeometry x="525" y="-198" width="96" height="30" as="geometry" />
        </mxCell>
      </root>
    </mxGraphModel>
  </diagram>
</mxfile>
